<?xml version="1.0" encoding="utf-8"?>
<!-- Generator: Adobe Illustrator 23.0.1, SVG Export Plug-In . SVG Version: 6.00 Build 0)  -->
<svg version="1.1" id="Layer_1" xmlns="http://www.w3.org/2000/svg" xmlns:xlink="http://www.w3.org/1999/xlink" x="0px" y="0px"
	 viewBox="0 0 1000 1000" style="enable-background:new 0 0 1000 1000;" xml:space="preserve">
<style type="text/css">
	.st0{fill:#FFFFFF;}
	.st1{fill:#E44F26;}
	.st2{fill:#F1672A;}
	.st3{fill:#EBEBEB;}
	.st4{fill:#FFFFFF;}
</style>
<g>
	<path class="st0" d="M-0.8,420.5h53.2V473H101v-52.5h53.2v159H101v-53.2H52.4v53.2H-0.8C-0.8,579.5-0.8,420.5-0.8,420.5z
		 M224,473.2h-46.9v-52.7h146.7v52.7h-46.8v106.3h-53.2V473.2L224,473.2z M347.2,420.5h55.4l34.1,55.9l34.1-55.9h55.3v159h-52.9
		v-78.8l-36.6,56.5h-0.9l-36.4-56.5v78.8h-52L347.2,420.5z M552.6,420.5h53.2V527h74.7v52.6H552.6L552.6,420.5z"/>
	<path class="st1" d="M705.8,332.7h295l-26.9,301.1l-120.8,33.5l-120.5-33.4L705.8,332.7z"/>
	<path class="st2" d="M950.9,614.6l23-257.3H853.4v284.4L950.9,614.6z"/>
	<path class="st3" d="M804.4,469l-3.4-37.8h52.3v-36.9h-92.6l10,111.7h82.6V469L804.4,469z M772.3,524.4l5.2,58l75.7,21l0.2,0V565
		l-0.2,0l-41-11.2l-2.6-29.5h-20L772.3,524.4z"/>
	<path class="st4" d="M938.1,478.9l0.9-9.9h-85.8v36.9h45.5l-4.3,47.9l-41.2,11.1v38.4l75.7-21l0.6-6.2L938.1,478.9z M853.2,431.2
		h89.2l3.3-37h-92.5V431L853.2,431.2z"/>
</g>
</svg>
