<svg xmlns="http://www.w3.org/2000/svg" viewBox="0 0 717.7 1848.26"><defs><style>.cls-1{fill:#fff;}</style></defs><g id="Layer_2" data-name="Layer 2"><g id="Layer_1-2" data-name="Layer 1"><g id="white_logo" data-name="white logo"><path class="cls-1" d="M166.14,14.17C129.86-1.69,91.91-7.85,53.76,15,20.13,35.14,0,71.94,0,111.14V486.83l221.35-76.92V309.07L428.79,428.55,0,577.47v231.2L717.7,562V339.66a11.46,11.46,0,0,0-5.72-9.92L615.66,274,401.1,149.92C351.81,121.41,303,91.65,253.64,63.5,226.25,47.89,196.79,27.57,166.14,14.17Z"/><polygon class="cls-1" points="0.01 1156.46 717.7 909.02 717.7 677.2 0.01 923.25 0.01 1156.46"/><polygon class="cls-1" points="0.01 1503.23 717.7 1255.51 717.7 1021.58 0.01 1269.13 0.01 1503.23"/><polygon class="cls-1" points="1 1848.26 218.14 1775.48 714.49 1602.52 717.7 1601.4 717.7 1367.38 0 1614.15 1 1848.26"/></g></g></g></svg>